<?xml version="1.0" encoding="UTF-8" standalone="no"?>
<svg
   width="16"
   height="16"
   fill="currentColor"
   class="bi bi-list"
   viewBox="0 0 16 16"
   version="1.1"
   id="svg4"
   sodipodi:docname="bar.svg"
   inkscape:version="1.2.2 (732a01da63, 2022-12-09)"
   xmlns:inkscape="http://www.inkscape.org/namespaces/inkscape"
   xmlns:sodipodi="http://sodipodi.sourceforge.net/DTD/sodipodi-0.dtd"
   xmlns="http://www.w3.org/2000/svg"
   xmlns:svg="http://www.w3.org/2000/svg">
  <defs
     id="defs8" />
  <sodipodi:namedview
     id="namedview6"
     pagecolor="#505050"
     bordercolor="#ffffff"
     borderopacity="1"
     inkscape:showpageshadow="0"
     inkscape:pageopacity="0"
     inkscape:pagecheckerboard="1"
     inkscape:deskcolor="#505050"
     showgrid="false"
     inkscape:zoom="34.1875"
     inkscape:cx="7.678245"
     inkscape:cy="8.0146252"
     inkscape:window-width="1360"
     inkscape:window-height="705"
     inkscape:window-x="-8"
     inkscape:window-y="-8"
     inkscape:window-maximized="1"
     inkscape:current-layer="svg4" />
  <path
     fill-rule="evenodd"
     d="M 2.5,12 A 0.5,0.5 0 0 1 3,11.5 h 10 a 0.5,0.5 0 0 1 0,1 H 3 A 0.5,0.5 0 0 1 2.5,12 Z m 0,-4 A 0.5,0.5 0 0 1 3,7.5 h 10 a 0.5,0.5 0 0 1 0,1 H 3 A 0.5,0.5 0 0 1 2.5,8 Z m 0,-4 A 0.5,0.5 0 0 1 3,3.5 h 10 a 0.5,0.5 0 0 1 0,1 H 3 A 0.5,0.5 0 0 1 2.5,4 Z"
     id="path2"
     inkscape:highlight-color="#ffffff"
     style="fill:#ffffff;fill-opacity:1" />
</svg>
